:FULLY-SPECIFIED
:FORCE-ALL-JOINTS-BE-3DOF
:DEGREES
1
root 6.24314 16.836 -28.1378 9.0217 -2.52979 -3.05774
lfemur -20.3712 2.30257 -19.9954
ltibia 35.927 0 0
lfoot -38.654 3.93715 0
ltoes 38.9541 0 0
rfemur -19.4747 0.22019 19.5256
rtibia 36.0342 0 0
rfoot -30.3779 -10.4967 0
rtoes 21.4483 0 0
lowerback -2.05144 3.66971 -5.03766
upperback -2.66728 5.00355 3.49279
thorax -2.36397 2.67023 6.42441
lowerneck -9.84699 -2.36864 1.94815
upperneck -1.37933 -3.32542 -1.65382
head 1.16433 -1.69823 -0.975663
lclavicle -1.65488e-14 -3.69739e-14 0
lhumerus -41.7253 -10.8128 99.8312
lradius 34.5094 0 0
lwrist 2.17521 0 0
lhand -10.5949 9.65639 0
lfingers 7.12502 0 0
lthumb 15.4107 39.062 0
rclavicle -1.65488e-14 -3.69739e-14 0
rhumerus -43.273 -4.86223 -84.2703
rradius 40.4763 0 0
rwrist 9.89469 0 0
rhand -23.7965 -22.476 0
rfingers 7.12502 0 0
rthumb 2.67393 -52.439 0
2
root 6.23542 16.8376 -28.1365 9.0494 -2.50737 -3.03202
lfemur -20.3701 2.27946 -19.9907
ltibia 35.8754 0 0
lfoot -38.5721 3.94604 0
ltoes 38.8621 0 0
rfemur -19.4117 0.373009 19.5243
rtibia 35.8967 0 0
rfoot -30.2973 -10.7001 0
rtoes 21.1992 0 0
lowerback -2.14181 3.63666 -4.92015
upperback -2.64466 4.95695 3.41164
thorax -2.27187 2.64279 6.28002
lowerneck -9.83846 -2.348 1.97273
upperneck -1.41817 -3.30088 -1.58419
head 1.15131 -1.68517 -0.956641
lclavicle -1.54825e-14 -3.58006e-14 0
lhumerus -41.7175 -10.8683 99.7489
lradius 34.6498 0 0
lwrist 2.28396 0 0
lhand -10.6273 9.50547 0
lfingers 7.12502 0 0
lthumb 15.3795 38.9134 0
rclavicle -1.54825e-14 -3.58006e-14 0
rhumerus -43.198 -4.86719 -84.4032
rradius 40.4377 0 0
rwrist 9.9215 0 0
rhand -23.868 -22.4226 0
rfingers 7.12502 0 0
rthumb 2.6049 -52.3861 0
3
root 6.2277 16.8391 -28.1351 9.0771 -2.48495 -3.0063
lfemur -20.369 2.25635 -19.9861
ltibia 35.8238 0 0
lfoot -38.4902 3.95493 0
ltoes 38.7701 0 0
rfemur -19.3486 0.525828 19.5231
rtibia 35.7592 0 0
rfoot -30.2168 -10.9035 0
rtoes 20.9501 0 0
lowerback -2.23217 3.60361 -4.80264
upperback -2.62203 4.91036 3.33048
thorax -2.17976 2.61536 6.13563
lowerneck -9.82992 -2.32736 1.99731
upperneck -1.45702 -3.27633 -1.51455
head 1.1383 -1.67212 -0.937618
lclavicle -1.44161e-14 -3.46273e-14 0
lhumerus -41.7096 -10.9239 99.6666
lradius 34.7902 0 0
lwrist 2.39272 0 0
lhand -10.6596 9.35455 0
lfingers 7.12502 0 0
lthumb 15.3483 38.7647 0
rclavicle -1.44161e-14 -3.46273e-14 0
rhumerus -43.123 -4.87215 -84.5361
rradius 40.3991 0 0
rwrist 9.94831 0 0
rhand -23.9394 -22.3693 0
rfingers 7.12502 0 0
rthumb 2.53587 -52.3331 0
4
root 6.21998 16.8407 -28.1338 9.10481 -2.46253 -2.98058
lfemur -20.368 2.23325 -19.9814
ltibia 35.7722 0 0
lfoot -38.4083 3.96381 0
ltoes 38.6782 0 0
rfemur -19.2856 0.678647 19.5218
rtibia 35.6217 0 0
rfoot -30.1362 -11.1068 0
rtoes 20.701 0 0
lowerback -2.32254 3.57056 -4.68513
upperback -2.59941 4.86376 3.24933
thorax -2.08766 2.58792 5.99125
lowerneck -9.82139 -2.30672 2.02188
upperneck -1.49586 -3.25179 -1.44492
head 1.12528 -1.65906 -0.918596
lclavicle -1.33498e-14 -3.3454e-14 0
lhumerus -41.7018 -10.9794 99.5843
lradius 34.9306 0 0
lwrist 2.50147 0 0
lhand -10.692 9.20363 0
lfingers 7.12502 0 0
lthumb 15.3171 38.6161 0
rclavicle -1.33498e-14 -3.3454e-14 0
rhumerus -43.048 -4.87711 -84.669
rradius 40.3605 0 0
rwrist 9.97512 0 0
rhand -24.0109 -22.3159 0
rfingers 7.12502 0 0
rthumb 2.46684 -52.2802 0
